<?xml version="1.0" standalone="no"?><!-- Generator: Gravit.io --><svg xmlns="http://www.w3.org/2000/svg" xmlns:xlink="http://www.w3.org/1999/xlink" style="isolation:isolate" viewBox="0 0 19 19" width="19" height="19"><defs><clipPath id="_clipPath_4oBhjMfh8u0orAMDE1wkYXMRAyiloKfW"><rect width="19" height="19"/></clipPath></defs><g clip-path="url(#_clipPath_4oBhjMfh8u0orAMDE1wkYXMRAyiloKfW)"><path d=" M 7.875 7.875 L 7.875 11.938 L 9.5 11.938 L 9.5 3 L 11.125 3 L 11.125 11.938 L 12.75 11.938 L 12.75 3 L 14.375 3 L 14.375 1.375 L 7.875 1.375 C 6.079 1.375 4.625 2.829 4.625 4.625 C 4.625 6.421 6.079 7.875 7.875 7.875 Z  M 6.25 13.563 L 6.25 11.125 L 3 14.375 L 6.25 17.625 L 6.25 15.188 L 16 15.188 L 16 13.563 L 6.25 13.563 Z " fill="none" vector-effect="non-scaling-stroke" stroke-width="1" stroke="rgb(30,195,139)" stroke-linejoin="miter" stroke-linecap="butt" stroke-miterlimit="4"/><path d=" M 0 -0.062 L 24 -0.062 L 24 23.938 L 0 23.938 L 0 -0.062 Z " fill="none"/></g></svg>