<?xml version="1.0" standalone="no"?><!-- Generator: Gravit.io --><svg xmlns="http://www.w3.org/2000/svg" xmlns:xlink="http://www.w3.org/1999/xlink" style="isolation:isolate" viewBox="0 0 19 19" width="19" height="19"><defs><clipPath id="_clipPath_D2hneLn2MshV3kxCCg6onfZAUvTCrRVv"><rect width="19" height="19"/></clipPath></defs><g clip-path="url(#_clipPath_D2hneLn2MshV3kxCCg6onfZAUvTCrRVv)"><path d=" M 6.25 7.875 L 6.25 11.938 L 7.875 11.938 L 7.875 3 L 9.5 3 L 9.5 11.938 L 11.125 11.938 L 11.125 3 L 12.75 3 L 12.75 1.375 L 6.25 1.375 C 4.454 1.375 3 2.829 3 4.625 C 3 6.421 4.454 7.875 6.25 7.875 Z  M 16 14.375 L 12.75 11.125 L 12.75 13.563 L 3 13.563 L 3 15.188 L 12.75 15.188 L 12.75 17.625 L 16 14.375 Z " fill="none" vector-effect="non-scaling-stroke" stroke-width="1" stroke="rgb(30,195,139)" stroke-linejoin="miter" stroke-linecap="butt" stroke-miterlimit="4"/><path d=" M 0 0 L 24 0 L 24 24 L 0 24 L 0 0 Z " fill="none"/></g></svg>